<?xml version="1.0" ?>
<mxfile host="app.diagrams.net" agent="python-script">
  <diagram id="main-diagram" name="Azure Infrastructure">
    <mxGraphModel dx="2000" dy="1200" grid="1" gridSize="10" guides="1" tooltips="1" connect="1" arrows="1" fold="1" page="1" pageScale="1" pageWidth="2339" pageHeight="1654">
      <root>
        <mxCell id="0"/>
        <mxCell id="1" parent="0"/>
        <mxCell id="group-0" style="rounded=1;whiteSpace=wrap;html=1;fillColor=#e1d5e7;strokeColor=#9673a6;dashed=1;dashPattern=5 5;fontSize=14;fontStyle=1;" parent="1" vertex="1">
          <mxGeometry x="100" y="770" width="800" height="500" as="geometry"/>
          <object label="Virtual Network: vnet1" as="value"/>
        </mxCell>
        <mxCell id="group-1" style="rounded=1;whiteSpace=wrap;html=1;fillColor=#f8cecc;strokeColor=#b85450;dashed=1;fontSize=12;fontStyle=1;" parent="1" vertex="1">
          <mxGeometry x="150" y="870" width="350" height="200" as="geometry"/>
          <object label="Subnet: subnet1" as="value"/>
        </mxCell>
        <mxCell id="node-0" style="image;aspect=fixed;html=1;points=[];align=center;fontSize=12;image=img/lib/azure2/general/Resource_Groups.svg" parent="1" vertex="1">
          <mxGeometry x="100" y="100" width="80" height="80" as="geometry"/>
          <object label="&lt;b&gt;TestRG&lt;/b&gt;" as="value" type="Microsoft.Resources/subscriptions/resourcegroups"/>
        </mxCell>
        <mxCell id="node-1" style="image;aspect=fixed;html=1;points=[];align=center;fontSize=12;image=img/lib/azure2/networking/Virtual_Networks.svg" parent="1" vertex="1">
          <mxGeometry x="150" y="800" width="80" height="80" as="geometry"/>
          <object label="&lt;b&gt;vnet1&lt;/b&gt;" as="value" type="Microsoft.Network/virtualNetworks"/>
        </mxCell>
        <mxCell id="node-2" style="image;aspect=fixed;html=1;points=[];align=center;fontSize=12;image=img/lib/azure2/networking/Subnet.svg" parent="1" vertex="1">
          <mxGeometry x="170" y="890" width="60" height="60" as="geometry"/>
          <object label="&lt;b&gt;subnet1&lt;/b&gt;" as="value" type="Microsoft.Network/virtualNetworks/subnets"/>
        </mxCell>
        <mxCell id="node-3" style="image;aspect=fixed;html=1;points=[];align=center;fontSize=12;image=img/lib/azure2/compute/Virtual_Machine.svg" parent="1" vertex="1">
          <mxGeometry x="180" y="930" width="60" height="60" as="geometry"/>
          <object label="&lt;b&gt;vm1&lt;/b&gt;" as="value" type="Microsoft.Compute/virtualMachines"/>
        </mxCell>
      </root>
    </mxGraphModel>
  </diagram>
</mxfile>
